<?xml version="1.0" encoding="UTF-8" standalone="no"?>
<!-- Created with Inkscape (http://www.inkscape.org/) -->

<svg
   width="66.123833mm"
   height="48.354874mm"
   viewBox="0 0 66.123833 48.354874"
   version="1.1"
   id="svg1"
   xml:space="preserve"
   xmlns="http://www.w3.org/2000/svg"
   xmlns:svg="http://www.w3.org/2000/svg"><defs
     id="defs1" /><g
     id="layer1"
     transform="translate(-129.64313,-71.398742)"><path
       style="opacity:1;fill:#dfeaea;fill-opacity:1;stroke:none;stroke-width:0.2;stroke-linecap:round;stroke-linejoin:round;stroke-dasharray:none;stroke-opacity:1"
       d="m 130.01971,112.52924 h 63.14243 c 0,0 4.58367,-9.88216 1.59025,-18.2076 -2.99342,-8.325446 -6.45463,-5.051393 -11.35736,-13.283295 -4.90274,-8.231902 -12.12227,-12.699818 -20.44771,-7.238579 -8.32545,5.461238 -3.61655,8.73529 -13.37684,10.980353 -9.76029,2.245064 -22.26355,13.683938 -19.55077,27.749121 z"
       id="path23" /><g
       id="g47396"
       transform="matrix(0.20482004,0,0,0.20482004,142.63845,64.158415)"><rect
         style="opacity:1;fill:#6095b4;fill-opacity:1;stroke:none;stroke-width:1.8578"
         id="rect21137"
         width="28.060049"
         height="35.165112"
         x="83.131599"
         y="188.46126"
         ry="0" /><rect
         style="opacity:1;fill:#6095b4;fill-opacity:1;stroke:none;stroke-width:3.15002"
         id="rect17265"
         width="92.815018"
         height="30.564114"
         x="51.05698"
         y="204.29184"
         ry="0" /><rect
         style="opacity:1;fill:#c1e2e9;fill-opacity:1;stroke:none;stroke-width:6.30313"
         id="rect17211"
         width="41.000145"
         height="52.327583"
         x="98.782074"
         y="171.89143"
         ry="14.483528" /><rect
         style="opacity:1;fill:#c1e2e9;fill-opacity:1;stroke:none;stroke-width:6.30313"
         id="rect15955"
         width="41.000145"
         height="52.327583"
         x="56.16148"
         y="171.89143"
         ry="14.483528" /><rect
         style="opacity:1;fill:#ace0ea;fill-opacity:1;stroke:none;stroke-width:6.30313"
         id="rect15967"
         width="41.000145"
         height="52.327583"
         x="56.16148"
         y="175.27252"
         ry="14.483528" /><rect
         style="opacity:1;fill:#80b9cf;fill-opacity:1;stroke:none;stroke-width:6.30313"
         id="rect15957"
         width="41.000145"
         height="52.327583"
         x="56.16148"
         y="175.27252"
         ry="14.483528" /><rect
         style="opacity:1;fill:#80b9cf;fill-opacity:1;stroke:none;stroke-width:6.30313"
         id="rect15965"
         width="41.000145"
         height="52.327583"
         x="98.782074"
         y="175.27252"
         ry="14.483528" /><rect
         style="opacity:1;fill:#80b9cf;fill-opacity:1;stroke:none;stroke-width:6.30313"
         id="rect12984"
         width="41.000145"
         height="52.327583"
         x="56.16148"
         y="175.27252"
         ry="14.483528" /><rect
         style="opacity:1;fill:#92c8d4;fill-opacity:1;stroke:none;stroke-width:4.08661"
         id="rect11491"
         width="83.211838"
         height="10.837947"
         x="56.289364"
         y="228.53471"
         ry="2.999789" /><path
         id="rect12946"
         style="opacity:1;fill:#ace0ea;stroke-width:4.16999"
         d="m 48.799854,194.85317 c 4.078339,0 7.361623,3.28328 7.361622,7.36162 v 10.46361 c 0,4.07834 -3.283284,7.36162 -7.361622,7.36162 -4.078338,0 -7.361621,-3.28328 -7.361621,-7.36162 v -10.46361 c 1e-6,-4.07834 3.283283,-7.36162 7.361621,-7.36162 z" /><rect
         style="opacity:1;fill:#80b9cf;fill-opacity:1;stroke:none;stroke-width:6.30313"
         id="rect15963"
         width="41.000145"
         height="52.327583"
         x="98.782074"
         y="175.27252"
         ry="14.483528" /><path
         id="path12950"
         style="opacity:1;fill:#87c1cf;stroke-width:4.16999"
         d="m 48.799854,199.68296 c 4.078338,0 7.361622,3.28329 7.361622,7.36162 v 26.06838 c 0,4.07834 -3.283284,7.36162 -7.361622,7.36162 -4.078338,0 -7.361621,-3.28328 -7.361621,-7.36162 v -26.06838 c 0,-4.07833 3.283283,-7.36162 7.361621,-7.36162 z" /><path
         id="rect17271"
         style="opacity:1;fill:#ace0ea;stroke-width:3.10283"
         d="m 60.890477,211.97848 h 33.630724 c 1.755952,0 3.169588,1.56537 3.169588,3.50978 v 5.66093 c 0,1.94442 -1.413636,3.50978 -3.169588,3.50978 h -34.66097 c -1.755951,0 -3.169587,-1.56536 -3.169587,-3.50978 v -5.66093 c 0,-1.94441 2.443882,-3.50978 4.199833,-3.50978 z" /><rect
         style="opacity:1;fill:#92c8d4;fill-opacity:1;stroke:none;stroke-width:2.94863"
         id="rect12962"
         width="41.000145"
         height="11.451411"
         x="56.690647"
         y="216.67786"
         ry="3.1695871" /><rect
         style="opacity:1;fill:#80b9cf;fill-opacity:1;stroke:none;stroke-width:6.30313"
         id="rect15959"
         width="41.000145"
         height="52.327583"
         x="98.782074"
         y="175.27252"
         ry="14.483528" /><rect
         style="opacity:1;fill:#80b9cf;fill-opacity:1;stroke:none;stroke-width:6.30313"
         id="rect15961"
         width="41.000145"
         height="52.327583"
         x="98.782074"
         y="175.27252"
         ry="14.483528" /><path
         id="rect17687"
         style="opacity:1;fill:#ace0ea;stroke-width:3.10283"
         d="m 101.6706,211.97848 h 32.74313 c 1.75595,0 4.9903,1.56556 5.01513,3.50978 l 0.0723,5.66093 c 0.0248,1.94422 -1.41364,3.50978 -3.16959,3.50978 H 101.6706 c -1.755953,0 -3.169589,-1.56536 -3.169589,-3.50978 v -5.66093 c 0,-1.94442 1.413636,-3.50978 3.169589,-3.50978 z" /><rect
         style="opacity:1;fill:#92c8d4;fill-opacity:1;stroke:none;stroke-width:2.94863"
         id="rect17689"
         width="41.000145"
         height="11.451411"
         x="98.501015"
         y="216.67786"
         ry="3.1695871" /><path
         id="path20383"
         style="opacity:1;fill:#ace0ea;stroke-width:4.16999"
         d="m 48.799854,194.85317 c 4.078339,0 7.361623,3.28328 7.361622,7.36162 v 10.46361 c 0,4.07834 -3.283284,7.36162 -7.361622,7.36162 -4.078338,0 -7.361621,-3.28328 -7.361621,-7.36162 v -10.46361 c 1e-6,-4.07834 3.283283,-7.36162 7.361621,-7.36162 z" /><path
         id="path20387"
         style="opacity:1;fill:#87c1cf;stroke-width:4.16999"
         d="m 48.799854,199.68296 c 4.078338,0 7.361622,3.28329 7.361622,7.36162 v 26.06838 c 0,4.07834 -3.283284,7.36162 -7.361622,7.36162 -4.078338,0 -7.361621,-3.28328 -7.361621,-7.36162 v -26.06838 c 0,-4.07833 3.283283,-7.36162 7.361621,-7.36162 z" /><path
         id="path21131"
         style="opacity:1;fill:#ace0ea;stroke-width:4.16999"
         d="m 147.14384,195.26699 c 4.07833,0 7.36162,3.28328 7.36162,7.36162 v 10.46361 c 0,4.07834 -3.28329,7.36162 -7.36162,7.36162 -4.07834,0 -7.36163,-3.28328 -7.36163,-7.36162 v -10.46361 c 1e-5,-4.07834 3.28329,-7.36162 7.36163,-7.36162 z" /><path
         id="path21135"
         style="opacity:1;fill:#87c1cf;stroke-width:4.16999"
         d="m 147.14384,200.09678 c 4.07833,0 7.36162,3.28329 7.36162,7.36162 v 26.06838 c 0,4.07834 -3.28329,7.36162 -7.36162,7.36162 -4.07834,0 -7.36163,-3.28328 -7.36163,-7.36162 V 207.4584 c 0,-4.07833 3.28329,-7.36162 7.36163,-7.36162 z" /></g><g
       id="g13"
       transform="translate(-21.328108,17.399246)"><path
         style="opacity:0.169;fill:#2b0000;fill-opacity:1;stroke:none;stroke-width:3.42177;stroke-linecap:round;stroke-linejoin:round"
         d="m 169.8093,98.015311 -3.47238,4.339059 h 35.39248 l -3.37806,-4.3489 z"
         id="path13" /><path
         style="fill:#e5aa66;fill-opacity:1;stroke:none;stroke-width:3;stroke-linecap:round;stroke-linejoin:round"
         d="m 169.33658,98.551417 -0.55801,3.256983 -1.17297,2e-5 0.3872,-3.177263 z"
         id="path1" /><path
         style="fill:#d08a45;fill-opacity:1;stroke:none;stroke-width:3;stroke-linecap:round;stroke-linejoin:round"
         d="m 169.85261,98.659941 -0.10066,1.519979 h 0.73278 l 0.306,-1.507901 z"
         id="path4" /><path
         style="fill:#d08a45;fill-opacity:1;stroke:none;stroke-width:3;stroke-linecap:round;stroke-linejoin:round"
         d="m 198.363,98.659943 0.10066,1.519987 h -0.73278 l -0.306,-1.507909 z"
         id="path5" /><path
         style="fill:#e2a45e;fill-opacity:1;stroke:none;stroke-width:3;stroke-linecap:round;stroke-linejoin:round"
         d="m 167.41268,98.00547 v 0.76499 h 33.24096 v -0.76499 z"
         id="path2" /><path
         style="opacity:1;fill:#fdc387;fill-opacity:1;stroke:none;stroke-width:3;stroke-linecap:round;stroke-linejoin:round"
         d="m 170.67397,94.454293 -3.26129,3.551177 h 33.24096 l -3.17271,-3.559231 z"
         id="path6" /><path
         style="fill:#d08a45;fill-opacity:1;stroke:none;stroke-width:3;stroke-linecap:round;stroke-linejoin:round"
         d="m 167.97614,98.77046 -0.0357,0.290568 1.30917,-0.0018 0.0507,-0.288806 z"
         id="path7" /><ellipse
         style="opacity:1;fill:#d98e56;fill-opacity:1;stroke:none;stroke-width:2.98828;stroke-linecap:round;stroke-linejoin:round"
         id="path12"
         cx="184.18517"
         cy="96.105644"
         rx="5.5293465"
         ry="0.97565103" /><g
         id="g11"
         transform="matrix(-1,0,0,1,368.30291,1.15e-5)"><path
           style="fill:#e5aa66;fill-opacity:1;stroke:none;stroke-width:3;stroke-linecap:round;stroke-linejoin:round"
           d="m 169.33658,98.551417 -0.55801,3.256983 -1.17297,2e-5 0.3872,-3.177263 z"
           id="path10" /><path
           style="fill:#d08a45;fill-opacity:1;stroke:none;stroke-width:3;stroke-linecap:round;stroke-linejoin:round"
           d="m 167.97614,98.77046 -0.0357,0.290568 1.30917,-0.0018 0.0507,-0.288806 z"
           id="path11" /></g></g><g
       id="g17"
       transform="translate(-29.402908,33.464555)"><ellipse
         style="opacity:0.169;fill:#000000;fill-opacity:1;stroke:none;stroke-width:6.88558;stroke-linecap:round;stroke-linejoin:round"
         id="ellipse17"
         cx="216.1236"
         cy="81.167885"
         rx="2.2012553"
         ry="0.57760328" /><path
         id="path15"
         style="opacity:1;fill:#f8bd55;fill-opacity:1;stroke:none;stroke-width:3;stroke-linecap:round;stroke-linejoin:round"
         d="m 216.12331,75.19841 a 2.7739909,0.47542316 0 0 0 -2.774,0.475423 2.7739909,0.47542316 0 0 0 0.006,0.03049 l 1.00614,5.385201 a 1.7126378,0.29352212 0 0 0 1.71256,0.293522 1.7126378,0.29352212 0 0 0 1.71255,-0.293522 l 1.10433,-5.382101 a 2.7739909,0.47542316 0 0 0 0.007,-0.03359 2.7739909,0.47542316 0 0 0 -2.77399,-0.475423 z" /><ellipse
         style="opacity:1;fill:#000000;fill-opacity:1;stroke:none;stroke-width:4.72467;stroke-linecap:round;stroke-linejoin:round"
         id="path16"
         cx="216.1236"
         cy="75.76046"
         rx="2.2012553"
         ry="0.27195224" /><path
         style="opacity:1;fill:#327568;fill-opacity:1;stroke:none;stroke-width:3;stroke-linecap:round;stroke-linejoin:round"
         d="m 185.80856,106.41011 c 0,0 -0.66146,0.21498 -1.73633,-0.7276 0,0 1.17409,0.0165 0.87643,-0.38034 -0.29765,-0.39687 -1.60403,0.23151 -2.19935,-1.81901 0,0 0.94258,0.33073 1.53789,0.26458 0.59532,-0.0661 -1.12448,-1.96783 -1.25677,-2.87734 -0.13229,-0.9095 -0.0661,-2.21588 0.0496,-2.26549 0.11576,-0.04961 4.18373,4.97747 2.72852,7.8052 z"
         id="path17"
         transform="translate(29.402908,-33.464555)" /><path
         style="opacity:1;fill:#327568;fill-opacity:1;stroke:none;stroke-width:3;stroke-linecap:round;stroke-linejoin:round"
         d="m 187.19785,103.31872 c 0,0 -2.6433,-2.43764 -2.41749,-4.548968 0,0 1.05266,2.495198 1.72128,2.862788 0.66862,0.36759 -0.65711,-1.30355 -0.85392,-1.977367 -0.1968,-0.67382 -0.65496,-1.904799 -0.3504,-3.647909 0,0 0.90077,2.229499 1.6544,2.100289 0.75362,-0.129212 -0.41776,-1.594232 -0.39403,-2.382786 0.0237,-0.788555 0.64513,-3.633905 1.15301,-3.594349 0.50788,0.03956 1.80315,1.835664 1.8387,2.578494 0.0356,0.742831 0.006,1.999366 -0.50687,3.511144 -0.51295,1.511777 -0.26714,1.836474 0.54174,0.493124 0.80889,-1.343357 0.94565,-2.200641 0.98137,-2.396536 0,0 0.61039,4.457476 -3.36779,7.002076 z"
         id="path18"
         transform="translate(29.402908,-33.464555)" /><path
         style="opacity:1;fill:#327568;fill-opacity:1;stroke:none;stroke-width:3;stroke-linecap:round;stroke-linejoin:round"
         d="m 188.00069,106.36144 c 0,0 2.76462,-0.15044 3.84904,-2.16168 v 0 c 0,0 -1.93384,0.0598 -1.04574,-0.64596 0.8881,-0.7058 1.60927,-0.55504 2.30748,-1.59857 0,0 -2.19871,0.38364 -0.51811,-0.49812 1.68061,-0.88176 1.45756,-1.550631 -1.38869,-0.95351 -2.84624,0.59712 -3.20398,5.85784 -3.20398,5.85784 z"
         id="path19"
         transform="translate(29.402908,-33.464555)" /><path
         style="opacity:1;fill:none;fill-opacity:1;stroke:#327568;stroke-width:0.2;stroke-linecap:round;stroke-linejoin:round;stroke-dasharray:none;stroke-opacity:1"
         d="m 185.58638,106.04391 c 0,0 0.7285,1.62987 0.86365,3.09009"
         id="path20"
         transform="translate(29.402908,-33.464555)" /><path
         style="opacity:1;fill:none;fill-opacity:1;stroke:#327568;stroke-width:0.2;stroke-linecap:round;stroke-linejoin:round;stroke-dasharray:none;stroke-opacity:1"
         d="m 188.1962,106.1057 c 0,0 -1.20692,1.70982 -1.21277,2.99322"
         id="path21"
         transform="translate(29.402908,-33.464555)" /><path
         style="opacity:1;fill:none;fill-opacity:1;stroke:#327568;stroke-width:0.2;stroke-linecap:round;stroke-linejoin:round;stroke-dasharray:none;stroke-opacity:1"
         d="m 187.21023,102.83931 -0.51035,6.37362"
         id="path22"
         transform="translate(29.402908,-33.464555)" /></g><g
       id="g40"
       transform="translate(7.5930878,56.194815)"><path
         style="opacity:0.169;fill:#000000;fill-opacity:1;stroke:none;stroke-width:0.311076;stroke-linecap:round;stroke-linejoin:round;stroke-dasharray:none;stroke-opacity:1"
         d="m 125.83781,59.208818 h 9.58592 l 0.9931,-1.863501 h -8.88433 z"
         id="path39" /><g
         id="g36"
         transform="translate(6.3638861,0.001555)"><path
           id="path35"
           style="opacity:1;fill:#ecb26b;stroke-width:0.181352;stroke-linejoin:round"
           d="m 127.33073,57.69467 v 1.161686 h 0.38189 l 0.17932,-0.111105 0.003,-1.050581 -0.18242,0.04392 v -0.04392 z" /><path
           id="path36"
           style="opacity:1;fill:#d18c48;stroke-width:0.1;stroke-linejoin:round"
           d="m 127.89504,57.69467 -0.18242,0.04392 v -0.0217 h -0.38241 v 0.0987 h 0.38241 l 0.18242,-0.03994 z" /></g><g
         id="g35"
         transform="translate(0.42167969,0.00155)"><path
           id="rect34"
           style="opacity:1;fill:#ecb26b;stroke-width:0.181352;stroke-linejoin:round"
           d="m 127.33073,57.69467 v 1.161686 h 0.38189 l 0.17932,-0.111105 0.003,-1.050581 -0.18242,0.04392 v -0.04392 z" /><path
           id="rect35"
           style="opacity:1;fill:#d18c48;stroke-width:0.1;stroke-linejoin:round"
           d="m 127.89504,57.69467 -0.18242,0.04392 v -0.0217 h -0.38241 v 0.0987 h 0.38241 l 0.18242,-0.03994 z" /></g><g
         id="g39"
         transform="translate(7.4718905,-1.0919183)"><path
           id="path38"
           style="opacity:1;fill:#d18c48;fill-opacity:1;stroke-width:0.181352;stroke-linejoin:round"
           d="m 127.33073,57.69467 v 1.161686 h 0.38189 l 0.17932,-0.111105 0.003,-1.050581 -0.18242,0.04392 v -0.04392 z" /></g><path
         d="m 128.5937,49.952507 -1.29811,1.005623 v 6.782015 h 7.29206 l -0.0114,-7.021277 h 0.0992 l 0.0139,6.944796 0.70952,-1.075904 v -6.635253 z"
         style="opacity:1;fill:#ecb26b;stroke-width:0.2;stroke-linecap:round;stroke-linejoin:round"
         id="path30" /><ellipse
         style="opacity:1;fill:#c78548;fill-opacity:1;stroke:none;stroke-width:0.136313;stroke-linecap:round;stroke-linejoin:round;stroke-dasharray:none;stroke-opacity:1"
         id="path26"
         cx="130.79991"
         cy="-55.319683"
         rx="0.32740518"
         ry="0.33909822"
         transform="scale(1,-1)" /><ellipse
         style="opacity:1;fill:#c78548;fill-opacity:1;stroke:none;stroke-width:0.136313;stroke-linecap:round;stroke-linejoin:round;stroke-dasharray:none;stroke-opacity:1"
         id="ellipse26"
         cx="130.79991"
         cy="-52.320793"
         rx="0.32740518"
         ry="0.33909822"
         transform="scale(1,-1)" /><path
         style="opacity:1;fill:#c78548;fill-opacity:1;stroke:none;stroke-width:0.2;stroke-linecap:round;stroke-linejoin:round;stroke-dasharray:none;stroke-opacity:1"
         d="m 127.29559,50.95813 h 7.34268 l 0.7607,-1.005623 h -6.80527 z"
         id="path27" /><path
         d="m 134.68945,57.663664 -0.0139,-6.944796 h -0.0992 l 0.0114,7.021277 h 0.0512 z"
         style="baseline-shift:baseline;display:inline;overflow:visible;opacity:1;vector-effect:none;fill:#c78548;stroke-linejoin:round;enable-background:accumulate;stop-color:#000000;stop-opacity:1"
         id="path32" /><path
         style="opacity:1;fill:none;fill-opacity:1;stroke:#c78548;stroke-width:0.1;stroke-linecap:butt;stroke-linejoin:round;stroke-dasharray:none;stroke-opacity:1"
         d="m 134.63297,54.393878 -7.34392,0.0122"
         id="path29" /></g></g></svg>
